<svg width="24" height="24" viewBox="0 0 24 24" fill="none" xmlns="http://www.w3.org/2000/svg">
<path d="M11.4648 0.72998C10.6165 1.52035 9.93619 2.47346 9.46431 3.53245C8.99243 4.59145 8.73869 5.73464 8.71824 6.89383C8.69779 8.05301 8.91103 9.20444 9.34526 10.2794C9.77949 11.3544 10.4258 12.3309 11.2456 13.1507C12.0655 13.9705 13.042 14.6168 14.1171 15.051C15.1921 15.4852 16.3436 15.6984 17.5028 15.678C18.6621 15.6575 19.8053 15.4038 20.8644 14.932C21.9234 14.4601 22.8766 13.7798 23.667 12.9316C23.3009 18.9575 18.298 23.73 12.1797 23.73C5.8207 23.73 0.666992 18.5765 0.666992 12.219C0.666992 6.10098 5.43966 1.09833 11.4648 0.72998Z" fill="#121212"/>
</svg>
