<svg width="80" height="80" viewBox="0 0 80 80" fill="none" xmlns="http://www.w3.org/2000/svg">
<path d="M54.6875 18.92C54.2975 18.92 54.0375 18.9725 53.775 19.0375V19.0775H53.815C53.9975 19.415 54.2975 19.6775 54.53 19.99C54.7125 20.3425 54.8675 20.705 55.0375 21.0575L55.09 21.005C55.4025 20.7825 55.56 20.4325 55.56 19.8975C55.43 19.74 55.4025 19.5725 55.2875 19.4275C55.1575 19.205 54.87 19.09 54.6875 18.92ZM19.2325 62.9025H16.1475C16.0541 57.9921 15.7547 53.0878 15.25 48.2025H15.225L10.525 62.9025H8.1675L3.505 48.2025H3.465C3.10267 53.0949 2.8859 57.9971 2.815 62.9025H0.00250244C0.154793 56.7379 0.611181 50.5846 1.37 44.465H5.1975L9.65 58.0075H9.675L14.1675 44.465H17.8125C18.62 51.185 19.1025 57.33 19.245 62.9025H19.2325ZM32.6175 49.2975C31.3675 56.12 29.7 61.0825 27.6575 64.1675C26.0425 66.55 24.285 67.7475 22.37 67.7475C21.8625 67.7475 21.2375 67.59 20.4825 67.2775V65.6375C20.86 65.69 21.29 65.7275 21.7725 65.7275C22.67 65.7275 23.3875 65.4675 23.935 64.985C24.585 64.385 24.9125 63.71 24.9125 62.9675C24.9125 62.4475 24.665 61.405 24.145 59.8175L20.7725 49.2975H23.8075L26.23 57.1625C26.7775 58.96 27.0125 60.1975 26.9075 60.9125C28.2475 57.37 29.1725 53.49 29.695 49.2975H32.6175ZM73.71 62.9025H64.935V44.465H67.89V60.6375H73.71V62.9025ZM62.6425 63.3475L59.2575 61.68C59.5575 61.4325 59.8425 61.16 60.105 60.8475C61.55 59.1675 62.2675 56.655 62.2675 53.3475C62.2675 47.24 59.8725 44.195 55.08 44.195C52.735 44.195 50.9 44.9625 49.585 46.5125C48.1525 48.205 47.4225 50.705 47.4225 54C47.4225 57.2425 48.06 59.6125 49.3375 61.135C50.51 62.49 52.2675 63.18 54.625 63.18C55.4975 63.18 56.305 63.075 57.035 62.855L61.45 65.4325L62.66 63.35L62.6425 63.3475ZM51.6675 59.205C50.9125 58.0075 50.5475 56.08 50.5475 53.4225C50.5475 48.775 51.955 46.4575 54.78 46.4575C56.2525 46.4575 57.345 47.0175 58.035 48.125C58.7775 49.335 59.155 51.2375 59.155 53.8675C59.155 58.5425 57.735 60.9 54.9225 60.9C53.4375 60.9 52.3575 60.34 51.655 59.2325L51.6675 59.205ZM46.145 57.8C46.145 59.3625 45.5725 60.6525 44.4125 61.64C43.2675 62.6425 41.7425 63.15 39.8025 63.15C37.9925 63.15 36.26 62.5775 34.555 61.43L35.35 59.8425C36.8075 60.5725 38.1225 60.9375 39.3225 60.9375C40.43 60.9375 41.3025 60.69 41.9275 60.2075C42.5525 59.7125 42.93 59.0225 42.93 58.15C42.93 57.055 42.1625 56.1175 40.7675 55.3375C39.4775 54.6225 36.8875 53.15 36.8875 53.15C35.48 52.1225 34.79 51.0275 34.79 49.2175C34.79 47.72 35.31 46.5225 36.3525 45.61C37.4075 44.6725 38.7475 44.2175 40.415 44.2175C42.074 44.2031 43.7003 44.6788 45.09 45.585L44.375 47.1725C43.2579 46.6805 42.053 46.4195 40.8325 46.405C39.8825 46.405 39.1525 46.64 38.645 47.095C38.1375 47.55 37.825 48.1225 37.825 48.84C37.825 49.935 38.6075 50.8725 40.0375 51.6775C41.3525 52.3925 43.995 53.905 43.995 53.905C45.44 54.92 46.1575 56.015 46.1575 57.7975L46.145 57.8ZM77.41 38.2825C75.625 38.2425 74.245 38.425 73.0875 38.92C72.7625 39.05 72.2275 39.05 72.175 39.4675C72.3575 39.65 72.3825 39.9375 72.54 40.1825C72.8125 40.625 73.27 41.225 73.7 41.5375C74.17 41.9025 74.6375 42.2675 75.12 42.58C75.9925 43.115 76.97 43.4275 77.8275 43.96C78.31 44.2725 78.805 44.675 79.285 45.0025C79.5325 45.1725 79.6875 45.4725 80 45.575V45.51C79.8425 45.315 79.805 45.0275 79.6475 44.795C79.425 44.5725 79.205 44.3775 78.9825 44.1575C78.3305 43.2919 77.5488 42.5321 76.665 41.905C75.95 41.4225 74.3875 40.745 74.1 39.925L74.06 39.8725C74.5425 39.8325 75.115 39.65 75.5825 39.52C76.3375 39.325 77.04 39.3625 77.8225 39.1675C78.1815 39.0743 78.5375 38.9701 78.89 38.855V38.66C78.4875 38.2575 78.1875 37.71 77.77 37.3325C76.6195 36.3258 75.3916 35.4113 74.0975 34.5975C73.395 34.1425 72.51 33.855 71.7675 33.4775C71.5075 33.3475 71.0525 33.2825 70.9075 33.06C70.505 32.565 70.27 31.9275 69.9825 31.34C69.3285 30.069 68.7206 28.7748 68.16 27.46C67.7575 26.5875 67.5225 25.7275 67.0275 24.92C64.735 21.13 62.235 18.84 58.4075 16.5875C57.5875 16.1175 56.5975 15.9225 55.555 15.675C54.995 15.65 54.4475 15.61 53.8875 15.585C53.5225 15.4275 53.1725 15.0125 52.86 14.8025C51.585 13.995 48.3025 12.2625 47.3775 14.555C46.7775 16.0125 48.2625 17.4325 48.785 18.1625C49.1625 18.6825 49.645 19.2575 49.9175 19.83C50.075 20.22 50.1125 20.625 50.27 21.0275C50.6225 22.005 50.96 23.0975 51.43 24.01C51.6775 24.48 51.9375 24.9725 52.25 25.39C52.4325 25.6375 52.745 25.7425 52.81 26.145C52.4975 26.6 52.4725 27.265 52.3025 27.8125C51.495 30.3375 51.8075 33.45 52.94 35.3125C53.305 35.8725 54.15 37.0975 55.285 36.6275C56.2875 36.225 56.0675 34.96 56.3525 33.84C56.4175 33.5675 56.3775 33.3975 56.51 33.215V33.2675C56.835 33.8925 57.1475 34.4925 57.435 35.1175C58.1125 36.2125 59.3225 37.345 60.325 38.1C60.86 38.5025 61.275 39.195 61.94 39.44V39.375H61.8875C61.745 39.18 61.5625 39.0875 61.38 38.9325C60.9578 38.5142 60.566 38.0664 60.2075 37.5925C59.2825 36.3425 58.45 34.9625 57.72 33.5425C57.3683 32.8408 57.0472 32.1243 56.7575 31.395C56.6275 31.135 56.6275 30.73 56.405 30.6C56.0675 31.0825 55.5725 31.4975 55.3375 32.11C54.9075 33.06 54.8675 34.245 54.7 35.47C54.6225 35.495 54.66 35.47 54.6225 35.5225C53.9075 35.34 53.66 34.61 53.3975 33.985C52.72 32.3975 52.615 29.8575 53.19 28.035C53.3475 27.565 54.01 26.095 53.75 25.6525C53.6075 25.2225 53.165 24.975 52.93 24.6375C52.63 24.22 52.33 23.6875 52.1225 23.2175C51.5875 21.9675 51.3275 20.5875 50.7425 19.3375C50.4825 18.765 50.0125 18.165 49.635 17.6325C49.205 17.0325 48.7375 16.605 48.41 15.9C48.2925 15.6525 48.1375 15.25 48.32 14.9875C48.36 14.805 48.45 14.74 48.6325 14.6875C48.92 14.44 49.7525 14.7525 50.04 14.895C50.86 15.22 51.55 15.5325 52.24 16.0025C52.5525 16.225 52.89 16.64 53.295 16.7575H53.765C54.48 16.915 55.275 16.7975 55.94 17.005C57.125 17.3825 58.1925 17.93 59.155 18.5275C62.0985 20.417 64.4921 23.0486 66.095 26.1575C66.3675 26.665 66.485 27.135 66.7325 27.6675C67.1875 28.775 67.775 29.88 68.2425 30.935C68.71 31.99 69.155 33.0575 69.83 33.93C70.1675 34.4 71.4975 34.645 72.1075 34.88C72.55 35.0875 73.24 35.27 73.63 35.505C74.3975 35.975 75.1525 36.5075 75.87 37.0275C76.235 37.275 77.3425 37.835 77.4075 38.2775L77.41 38.2825Z" fill="#1A1A1A"/>
</svg>
