<svg width="24" height="24" viewBox="0 0 24 24" fill="none" xmlns="http://www.w3.org/2000/svg">
<path d="M6.28364 4.68L4.32 2.72727L2.78182 4.26545L4.73455 6.21818L6.28364 4.68ZM3.27273 10.8545H0V13.0364H3.27273V10.8545ZM13.0909 0H10.9091V3.21818H13.0909V0V0ZM21.2182 4.26545L19.68 2.72727L17.7273 4.68L19.2655 6.21818L21.2182 4.26545ZM17.7164 19.2109L19.6691 21.1745L21.2073 19.6364L19.2436 17.6836L17.7164 19.2109ZM20.7273 10.8545V13.0364H24V10.8545H20.7273ZM12 5.4C8.38909 5.4 5.45455 8.33455 5.45455 11.9455C5.45455 15.5564 8.38909 18.4909 12 18.4909C15.6109 18.4909 18.5455 15.5564 18.5455 11.9455C18.5455 8.33455 15.6109 5.4 12 5.4ZM10.9091 23.8909H13.0909V20.6727H10.9091V23.8909ZM2.78182 19.6255L4.32 21.1636L6.27273 19.2L4.73455 17.6618L2.78182 19.6255Z" fill="#FFF201"/>
</svg>
