<svg width="80" height="80" viewBox="0 0 80 80" fill="none" xmlns="http://www.w3.org/2000/svg">
<g clip-path="url(#clip0_7_105)">
<path d="M66.6675 0H13.335C9.80245 0.0112072 6.41778 1.41948 3.91988 3.91738C1.42198 6.41528 0.0137096 9.79995 0.00250244 13.3325V66.665C0.00250244 73.995 6.005 79.9975 13.335 79.9975H66.6675C73.9975 79.9975 80 73.995 80 66.665V13.3325C80 6.0025 73.9975 0 66.6675 0ZM59.375 56.185C58.7091 57.7909 57.653 59.2053 56.3025 60.3C54.895 61.4325 53.125 62.37 50.9375 63.035C48.7625 63.7125 46.1725 64.05 43.165 64.05H21.7325V17.3825H44.4025C48.595 17.3825 51.955 18.32 54.4675 20.2475C57.0075 22.175 58.2575 25.065 58.2575 28.945C58.2575 31.3025 57.685 33.3075 56.5375 34.9725C55.39 36.6375 53.7375 37.9275 51.6025 38.8275V38.985C54.455 39.585 56.655 40.9375 58.1 43.035C59.545 45.1325 60.3 47.7875 60.3 50.99C60.3019 52.7359 59.9613 54.4652 59.2975 56.08L59.375 56.17V56.185ZM50.1175 44.6875C48.7625 43.4375 46.835 42.825 44.3625 42.825H29.9475V57.3825H44.4C46.86 57.3825 48.8 56.745 50.1675 55.455C51.535 54.165 52.225 52.33 52.225 49.985C52.2 47.68 51.535 45.8975 50.1675 44.685H50.1025L50.1175 44.6875ZM48.125 35.2725C49.44 34.1525 50.09 32.55 50.09 30.455C50.09 28.11 49.505 26.445 48.32 25.495C47.1475 24.545 45.455 24.05 43.23 24.05H29.8975V36.9275H43.23C45.17 36.9275 46.8375 36.355 48.1125 35.275L48.125 35.2725Z" fill="#1A1A1A"/>
</g>
<defs>
<clipPath id="clip0_7_105">
<rect width="80" height="80" fill="white"/>
</clipPath>
</defs>
</svg>
