<svg width="57" height="80" viewBox="0 0 57 80" fill="none" xmlns="http://www.w3.org/2000/svg">
<g clip-path="url(#clip0_7_95)">
<path d="M28.3334 79.7978L5.24601 73.3885L0.100964 15.6821H56.635L51.4847 73.3796L28.3334 79.7978Z" fill="#1A1A1A"/>
<path d="M47.0754 69.7057L51.4765 20.4004H28.368V74.8919L47.0754 69.7057Z" fill="#1A1A1A"/>
<path d="M11.8958 41.8029L12.53 48.8804H28.368V41.8029H11.8958ZM10.6211 27.478L11.2644 34.5555H28.368V27.478H10.6211ZM28.368 60.1838L28.337 60.192L20.4549 58.0637L19.9509 52.4192H12.8462L13.8377 63.5319L28.3354 67.5563L28.368 67.5474V60.1838Z" fill="#EBEBEB"/>
<path d="M13.406 0H21.9778V3.58471H16.9907V7.16942H21.9782V10.7539H13.406V0ZM23.6923 0H32.2643V3.11712H27.277V3.7405H32.2643V10.9099H23.6925V7.63657H28.6798V7.01319H23.6921V0H23.6923ZM33.9789 0H42.5508V3.11712H37.5636V3.7405H42.5508V10.9099H33.9789V7.63657H38.9661V7.01319H33.9791V0H33.9789Z" fill="#1A1A1A"/>
<path d="M44.795 41.8029L46.0726 27.478H28.3436V34.5555H38.3164L37.6724 41.8029H28.3436V48.8804H37.0587L36.237 58.0593L28.3434 60.1898V67.5529L42.8527 63.5319L42.959 62.3361L44.6224 43.7034L44.795 41.8029Z" fill="white"/>
</g>
<defs>
<clipPath id="clip0_7_95">
<rect width="56.736" height="80" fill="white"/>
</clipPath>
</defs>
</svg>
