<svg width="80" height="80" viewBox="0 0 80 80" fill="none" xmlns="http://www.w3.org/2000/svg">
<g clip-path="url(#clip0_7_138)">
<path d="M40 40.0001C40 22.2276 66.6675 22.2276 66.6675 40.0001C66.6675 57.7726 40 57.7726 40 40.0001ZM13.3325 66.6676C13.3315 64.9164 13.6757 63.1823 14.3454 61.5643C15.015 59.9463 15.9971 58.4761 17.2353 57.2379C18.4735 55.9996 19.9437 55.0176 21.5617 54.3479C23.1797 53.6783 24.9139 53.3341 26.665 53.3351H39.9975V66.6676C39.9975 84.4401 13.33 84.4401 13.33 66.6676H13.3325ZM40 6.07059e-05V26.6676H53.3325C71.105 26.6676 71.105 6.07059e-05 53.3325 6.07059e-05H40ZM13.3325 13.3326C13.3315 15.0837 13.6757 16.8178 14.3454 18.4359C15.015 20.0539 15.9971 21.524 17.2353 22.7623C18.4735 24.0005 19.9437 24.9825 21.5617 25.6522C23.1797 26.3219 24.9139 26.666 26.665 26.6651H39.9975V-0.00243929H26.665C24.9139 -0.0034252 23.1797 0.340757 21.5617 1.01043C19.9437 1.6801 18.4735 2.66213 17.2353 3.90036C15.9971 5.13859 15.015 6.60875 14.3454 8.22677C13.6757 9.84479 13.3315 11.5789 13.3325 13.3301V13.3326ZM13.3325 40.0001C13.3315 41.7512 13.6757 43.4853 14.3454 45.1034C15.015 46.7214 15.9971 48.1915 17.2353 49.4298C18.4735 50.668 19.9437 51.65 21.5617 52.3197C23.1797 52.9894 24.9139 53.3335 26.665 53.3326H39.9975V26.6651H26.665C24.9139 26.6641 23.1797 27.0083 21.5617 27.6779C19.9437 28.3476 18.4735 29.3296 17.2353 30.5679C15.9971 31.8061 15.015 33.2762 14.3454 34.8943C13.6757 36.5123 13.3315 38.2464 13.3325 39.9976V40.0001Z" fill="#1A1A1A"/>
</g>
<defs>
<clipPath id="clip0_7_138">
<rect width="80" height="80" fill="white"/>
</clipPath>
</defs>
</svg>
