<svg width="80" height="80" viewBox="0 0 80 80" fill="none" xmlns="http://www.w3.org/2000/svg">
<path d="M8.66667 35.3L27.9333 16L33.5667 21.6667C32.7667 24.5 34.0667 27.6 36.6667 29.1V47.5667C34.6667 48.7 33.3333 50.8666 33.3333 53.3333C33.3333 55.1014 34.0357 56.7971 35.286 58.0474C36.5362 59.2976 38.2319 60 40 60C41.7681 60 43.4638 59.2976 44.714 58.0474C45.9643 56.7971 46.6667 55.1014 46.6667 53.3333C46.6667 50.8666 45.3333 48.7 43.3333 47.5667V31.3666L50.2333 38.3333C50 38.8333 50 39.4 50 40C50 41.7681 50.7024 43.4638 51.9526 44.714C53.2029 45.9643 54.8986 46.6666 56.6667 46.6666C58.4348 46.6666 60.1305 45.9643 61.3807 44.714C62.631 43.4638 63.3333 41.7681 63.3333 40C63.3333 38.2319 62.631 36.5362 61.3807 35.2859C60.1305 34.0357 58.4348 33.3333 56.6667 33.3333C56.0667 33.3333 55.5 33.3333 55 33.5667L46.4333 25C46.8472 23.4561 46.6868 21.8145 45.9818 20.38C45.2768 18.9454 44.0751 17.8155 42.6 17.2C41.1667 16.6666 39.6667 16.5333 38.3333 16.9L32.6667 11.2667L35.3 8.66665C37.9 6.03332 42.1 6.03332 44.7 8.66665L71.3333 35.3C73.9667 37.9 73.9667 42.1 71.3333 44.7L44.7 71.3333C42.1 73.9667 37.9 73.9667 35.3 71.3333L8.66667 44.7C6.03333 42.1 6.03333 37.9 8.66667 35.3Z" fill="#1A1A1A"/>
</svg>
