<svg width="100" height="63" viewBox="0 0 100 63" fill="none" xmlns="http://www.w3.org/2000/svg">
<path d="M49.4219 62.7997C49.0937 62.7997 48.7656 62.7036 48.4688 62.5434L45.4688 60.717C45.0156 60.4606 45.2344 60.3645 45.3906 60.3165C45.9844 60.1082 46.1094 60.0601 46.75 59.6756C46.8125 59.6436 46.9063 59.6596 46.9688 59.6916L49.2812 61.1015C49.3594 61.1495 49.4844 61.1495 49.5625 61.1015L58.5938 55.7505C58.6719 55.7024 58.7344 55.6063 58.7344 55.4942V44.8082C58.7344 44.6961 58.6875 44.5999 58.5938 44.5519L49.5625 39.2169C49.4844 39.1688 49.375 39.1688 49.2812 39.2169L40.25 44.5519C40.1563 44.5999 40.1094 44.7121 40.1094 44.8082V55.4942C40.1094 55.5903 40.1719 55.6864 40.25 55.7345L42.7187 57.1924C44.0625 57.8813 44.8906 57.0642 44.8906 56.2632V45.7054C44.8906 45.5612 45 45.433 45.1562 45.433H46.2969C46.4375 45.433 46.5625 45.5452 46.5625 45.7054V56.2632C46.5625 58.1056 45.5937 59.1469 43.8906 59.1469C43.375 59.1469 42.9531 59.1469 41.8125 58.5702L39.4375 57.1763C38.8594 56.8239 38.4844 56.1831 38.4844 55.4942V44.8082C38.4844 44.1193 38.8437 43.4624 39.4375 43.126L48.4688 37.775C49.0469 37.4386 49.7969 37.4386 50.3594 37.775L59.3906 43.126C59.9688 43.4785 60.3438 44.1193 60.3438 44.8082V55.4942C60.3438 56.1831 59.9844 56.8399 59.3906 57.1763L50.3594 62.5273C50.0937 62.7036 49.7656 62.7997 49.4219 62.7997V62.7997ZM56.7188 52.2579C56.7188 50.2553 55.4062 49.7266 52.625 49.3421C49.8125 48.9576 49.5312 48.7654 49.5312 48.0925C49.5312 47.5318 49.7656 46.7948 51.8437 46.7948C53.7031 46.7948 54.3906 47.2113 54.6719 48.493C54.7031 48.6212 54.7969 48.7013 54.9219 48.7013H56.0938C56.1719 48.7013 56.2344 48.6692 56.2813 48.6212C56.3281 48.5571 56.3594 48.493 56.3438 48.4129C56.1563 46.202 54.7344 45.1767 51.8437 45.1767C49.2656 45.1767 47.7344 46.2981 47.7344 48.1566C47.7344 50.1912 49.2656 50.7359 51.7344 50.9923C54.6875 51.2967 54.9219 51.7292 54.9219 52.322C54.9219 53.3634 54.1094 53.7959 52.2031 53.7959C49.8125 53.7959 49.2812 53.1871 49.1094 51.9695C49.0937 51.8414 48.9844 51.7453 48.8438 51.7453H47.6719C47.5313 51.7453 47.4062 51.8574 47.4062 52.0176C47.4062 53.5716 48.2344 55.4301 52.1875 55.4301C55.0781 55.4301 56.7188 54.2766 56.7188 52.2579V52.2579ZM65.2344 44.2314C65.2344 45.2087 64.4531 46.0098 63.5 46.0098C62.5469 46.0098 61.7656 45.2087 61.7656 44.2314C61.7656 43.2221 62.5781 42.4531 63.5 42.4531C64.4375 42.4371 65.2344 43.2221 65.2344 44.2314ZM64.9531 44.2314C64.9531 43.3984 64.2969 42.7415 63.4844 42.7415C62.6875 42.7415 62.0312 43.3984 62.0312 44.2314C62.0312 45.0645 62.6875 45.7374 63.4844 45.7374C64.2969 45.7214 64.9531 45.0485 64.9531 44.2314ZM64.25 45.2247H63.8438C63.8281 45.1286 63.7656 44.6159 63.7656 44.5999C63.7344 44.4878 63.7031 44.4237 63.5625 44.4237H63.2188V45.2247H62.8438V43.2221H63.5156C63.75 43.2221 64.2031 43.2221 64.2031 43.7508C64.2031 44.1193 63.9687 44.1994 63.8281 44.2475C64.0938 44.2635 64.1094 44.4397 64.1563 44.6961C64.1719 44.8563 64.2031 45.1286 64.25 45.2247V45.2247ZM63.8125 43.8149C63.8125 43.5425 63.625 43.5425 63.5313 43.5425H63.2188V44.1033H63.5156C63.7656 44.1033 63.8125 43.927 63.8125 43.8149V43.8149ZM21.4531 20.9851C21.4531 20.5525 21.2344 20.168 20.875 19.9597L11.2969 14.3044C11.1406 14.2082 10.9531 14.1602 10.7656 14.1441H10.6719C10.4844 14.1441 10.3125 14.2082 10.1406 14.3044L0.578125 19.9597C0.21875 20.168 0 20.5685 0 20.9851L0.015625 36.205C0.015625 36.4132 0.125 36.6055 0.296875 36.7176C0.46875 36.8298 0.6875 36.8298 0.875 36.7176L6.5625 33.3693C6.92187 33.145 7.14063 32.7605 7.14063 32.3439V25.2306C7.14063 24.8141 7.35938 24.4136 7.71875 24.2053L10.1406 22.7794C10.3281 22.6673 10.5156 22.6192 10.7187 22.6192C10.9219 22.6192 11.125 22.6673 11.2969 22.7794L13.7188 24.2053C14.0781 24.4136 14.2969 24.8141 14.2969 25.2306V32.3439C14.2969 32.7605 14.5156 33.161 14.875 33.3693L20.5625 36.7176C20.7344 36.8298 20.9688 36.8298 21.1406 36.7176C21.3125 36.6215 21.4219 36.4132 21.4219 36.205L21.4531 20.9851ZM73.8281 4.37139V32.6323C73.8281 33.0488 73.6094 33.4494 73.25 33.6576L63.6719 39.329C63.3125 39.5373 62.875 39.5373 62.5156 39.329L52.9375 33.6576C52.5781 33.4494 52.3594 33.0488 52.3594 32.6323V21.2895C52.3594 20.8729 52.5781 20.4724 52.9375 20.2641L62.5156 14.5927C62.875 14.3845 63.3125 14.3845 63.6719 14.5927L66.0625 16.0026C66.3281 16.1628 66.6719 15.9545 66.6719 15.6501V0.590448C66.6719 0.141862 67.1406 -0.146515 67.5313 0.0777779L73.2344 3.34605C73.5938 3.5383 73.8281 3.93882 73.8281 4.37139V4.37139ZM66.6406 25.0224C66.6406 24.9102 66.5781 24.8141 66.5 24.766L63.2188 22.8115C63.125 22.7634 63.0156 22.7634 62.9219 22.8115L59.6406 24.766C59.5469 24.8141 59.5 24.9102 59.5 25.0224V28.9154C59.5 29.0276 59.5625 29.1237 59.6406 29.1718L62.9219 31.1103C63.0156 31.1584 63.125 31.1584 63.2031 31.1103L66.4844 29.1718C66.5781 29.1237 66.625 29.0276 66.625 28.9154V25.0224H66.6406ZM99.4219 24.9102C99.7812 24.7019 100 24.3014 100 23.8849V21.1453C100 20.7287 99.7812 20.3282 99.4219 20.12L89.9063 14.4485C89.5469 14.2403 89.1094 14.2403 88.75 14.4485L79.1719 20.12C78.8125 20.3282 78.5938 20.7287 78.5938 21.1453V32.4881C78.5938 32.9207 78.8125 33.3052 79.1719 33.5134L88.6875 39.0727C89.0312 39.281 89.4688 39.281 89.8281 39.0727L95.5781 35.7884C95.9688 35.5641 95.9688 34.9874 95.5781 34.7631L85.9375 29.0917C85.75 28.9795 85.6406 28.7873 85.6406 28.579V25.0224C85.6406 24.8141 85.75 24.6218 85.9375 24.5097L88.9375 22.7314C89.1094 22.6192 89.3438 22.6192 89.5156 22.7314L92.5156 24.5097C92.6875 24.6218 92.8125 24.8141 92.8125 25.0224V27.81C92.8125 28.2586 93.2969 28.547 93.6875 28.3227L99.4219 24.9102V24.9102ZM87.3438 25.4709C87.2812 25.519 87.2344 25.5831 87.2344 25.6632V27.842C87.2344 27.9221 87.2812 28.0022 87.3438 28.0343L89.1875 29.1237C89.25 29.1718 89.3438 29.1718 89.4063 29.1237L91.25 28.0343C91.3125 27.9862 91.3594 27.9221 91.3594 27.842V25.6632C91.3594 25.5831 91.3125 25.503 91.25 25.4709L89.4063 24.3815C89.3438 24.3335 89.25 24.3335 89.1875 24.3815L87.3438 25.4709ZM47.625 32.44V21.1613C47.625 20.7448 47.375 20.3442 47.0156 20.136L37.4688 14.4966C37.1406 14.3044 36.6875 14.2723 36.3125 14.4966L26.7656 20.136C26.4063 20.3442 26.1562 20.7287 26.1562 21.1613V32.44C26.1562 32.8886 26.4531 33.2731 26.7812 33.4654L36.3438 39.1047C36.7188 39.329 37.1562 39.313 37.5 39.1047L47.0312 33.4654C47.3125 33.3052 47.5156 33.0328 47.5938 32.7124C47.6094 32.6323 47.625 32.5362 47.625 32.44ZM36.0156 12.4299L35.8906 12.51H36.0625L36.0156 12.4299V12.4299ZM47.9219 33.2892L47.8594 33.177V33.3212L47.9219 33.2892Z" fill="#1A1A1A"/>
</svg>
