<svg width="80" height="80" viewBox="0 0 80 80" fill="none" xmlns="http://www.w3.org/2000/svg">
<g clip-path="url(#clip0_7_134)">
<path d="M45.0894 0.329375C23.1828 -2.48062 3.13943 12.9994 0.329434 34.9094C-2.48057 56.816 12.9961 76.856 34.9061 79.6694C56.8161 82.4794 76.8628 66.9994 79.6661 45.0894C82.4794 23.1827 67.0028 3.14271 45.0894 0.329375ZM53.3261 25.2794C52.5838 25.2891 51.8746 25.5881 51.3494 26.1127L36.5061 40.956L35.4828 39.9327L33.3394 37.7894C47.9694 23.2027 50.6061 23.0627 53.3261 25.2794ZM37.1161 41.4827L51.9161 26.6827C52.1101 26.4793 52.3435 26.3175 52.6022 26.2074C52.8608 26.0973 53.1392 26.0411 53.4203 26.0422C53.7014 26.0434 53.9793 26.1018 54.237 26.2141C54.4947 26.3263 54.7269 26.49 54.9192 26.695C55.1115 26.9 55.2599 27.1421 55.3555 27.4065C55.451 27.6709 55.4916 27.952 55.4748 28.2326C55.458 28.5132 55.3841 28.7874 55.2576 29.0384C55.1312 29.2895 54.9549 29.5121 54.7394 29.6927L39.0761 43.4427L37.1161 41.4827ZM38.2161 43.796L34.5494 44.5894C34.5056 44.5992 34.4598 44.5941 34.4193 44.5747C34.3788 44.5554 34.346 44.523 34.3261 44.4827C34.3038 44.4442 34.295 44.3994 34.301 44.3553C34.3071 44.3113 34.3276 44.2705 34.3594 44.2394L36.5094 42.0894L38.2161 43.796ZM28.8728 42.266L32.7794 38.3594L35.7094 41.286L29.1128 42.706C29.0578 42.7203 28.9996 42.7152 28.948 42.6915C28.8963 42.6678 28.8545 42.627 28.8294 42.576C28.7984 42.5277 28.7857 42.4699 28.7936 42.413C28.8016 42.3561 28.8296 42.304 28.8728 42.266ZM16.7194 62.4594C16.6861 62.4565 16.6537 62.447 16.6241 62.4314C16.5944 62.4159 16.5682 62.3947 16.5468 62.369C16.5254 62.3432 16.5093 62.3135 16.4995 62.2816C16.4896 62.2496 16.4862 62.216 16.4894 62.1827C16.4958 62.1248 16.5216 62.0707 16.5628 62.0294H16.5694L19.7228 58.876L23.7961 62.9494L16.7194 62.4594ZM24.8028 58.2727C24.6516 58.3508 24.5311 58.4773 24.4604 58.632C24.3897 58.7867 24.3729 58.9607 24.4128 59.126L25.0894 62.0094C25.1113 62.0982 25.1033 62.1918 25.0667 62.2756C25.0301 62.3595 24.9669 62.4289 24.8869 62.4733C24.8069 62.5177 24.7145 62.5345 24.624 62.5211C24.5335 62.5078 24.4499 62.465 24.3861 62.3994H24.3761L21.2628 59.286L20.2828 58.3027L32.8228 45.776L38.8894 44.466L41.8028 47.3794C37.6194 51.0527 31.8994 54.716 24.8028 58.2727ZM42.3994 46.846H42.3928L39.5961 44.0494L55.2594 30.2994C55.4043 30.1707 55.5371 30.029 55.6561 29.876C55.1628 34.3594 48.8928 40.6927 42.3994 46.846ZM54.5894 25.3127L54.5794 25.306C53.4774 24.1987 52.8444 22.7093 52.8121 21.1473C52.7798 19.5853 53.3507 18.071 54.406 16.9191C55.4614 15.7671 56.9201 15.0662 58.4789 14.962C60.0377 14.8577 61.5768 15.3582 62.7761 16.3594L57.4094 21.736C57.3722 21.7729 57.3427 21.8168 57.3226 21.8651C57.3024 21.9135 57.2921 21.9653 57.2921 22.0177C57.2921 22.0701 57.3024 22.1219 57.3226 22.1703C57.3427 22.2186 57.3722 22.2625 57.4094 22.2994L61.5661 26.456C60.4299 27.02 59.1454 27.2131 57.8936 27.0079C56.6419 26.8028 55.4861 26.2098 54.5894 25.3127ZM63.1828 25.3127C62.9071 25.5849 62.6044 25.8284 62.2794 26.0394H62.2761L58.2528 22.016L63.3628 16.906C65.5661 19.306 65.4861 23.0127 63.1828 25.3127ZM62.8494 20.166C62.7693 20.2241 62.7092 20.3057 62.6776 20.3995C62.6459 20.4933 62.6442 20.5946 62.6728 20.6894C62.7915 20.9297 62.8379 21.1993 62.8066 21.4655C62.7752 21.7318 62.6674 21.9832 62.4961 22.1894C62.4579 22.2375 62.4296 22.2927 62.4128 22.3517C62.396 22.4108 62.391 22.4726 62.3981 22.5336C62.4052 22.5946 62.4243 22.6536 62.4543 22.7072C62.4843 22.7609 62.5245 22.808 62.5728 22.846C62.6528 22.9088 62.7511 22.9439 62.8528 22.946C62.9202 22.9454 62.9867 22.9302 63.0477 22.9015C63.1087 22.8727 63.1627 22.831 63.2061 22.7794C63.4924 22.4354 63.6723 22.0155 63.7238 21.5709C63.7753 21.1263 63.6962 20.6764 63.4961 20.276C63.4612 20.2259 63.4167 20.1833 63.3651 20.1506C63.3136 20.1179 63.256 20.0958 63.1958 20.0855C63.1356 20.0753 63.074 20.0771 63.0145 20.091C62.9551 20.1048 62.8989 20.1303 62.8494 20.166Z" fill="#1A1A1A"/>
</g>
<defs>
<clipPath id="clip0_7_134">
<rect width="80" height="80" fill="white"/>
</clipPath>
</defs>
</svg>
