<svg width="80" height="83" viewBox="0 0 80 83" fill="none" xmlns="http://www.w3.org/2000/svg">
<g clip-path="url(#clip0_7_123)">
<path d="M80 39.9506C80 34.5163 73.3633 29.3656 63.1867 26.1734C65.5367 15.5406 64.4933 7.07818 59.8933 4.36787C58.7787 3.72779 57.5172 3.4056 56.24 3.43481V7.16021C56.99 7.16021 57.5933 7.31401 58.1 7.59769C60.3167 8.90329 61.28 13.8659 60.53 20.2538C60.35 21.826 60.0567 23.4802 59.6967 25.1686C56.2888 24.3266 52.83 23.718 49.3433 23.3469C47.2662 20.4086 45 17.6157 42.56 14.987C47.8767 9.92179 52.8667 7.14654 56.26 7.14654V3.41772C51.7733 3.41772 45.9033 6.69539 39.9667 12.3792C34.0333 6.73299 28.16 3.48608 23.6767 3.48608V7.21148C27.0533 7.21148 32.06 9.97306 37.3767 15.0041C35.0933 17.4649 32.81 20.2538 30.64 23.3469C27.1461 23.7139 23.6812 24.3283 20.27 25.1857C19.9095 23.5854 19.6258 21.968 19.42 20.3392C18.6533 13.948 19.6 8.98532 21.8033 7.66605C22.29 7.36528 22.9267 7.22857 23.6767 7.22857V3.50317C22.31 3.50317 21.0667 3.80394 19.9933 4.43623C15.41 7.14654 14.3833 15.5885 16.7467 26.1905C6.60333 29.4032 0 34.5333 0 39.9506C0 45.3849 6.63667 50.5355 16.8133 53.7243C14.4633 64.3605 15.5067 72.8229 20.1067 75.5298C21.1667 76.1655 22.4067 76.4663 23.7733 76.4663C28.26 76.4663 34.13 73.1886 40.0667 67.5048C46 73.1544 51.87 76.3979 56.3567 76.3979C57.6437 76.4258 58.9148 76.1026 60.04 75.4615C64.6233 72.7546 65.65 64.3126 63.2867 53.7106C73.3967 50.5184 80 45.3678 80 39.9506ZM58.7667 28.7983C58.1333 31.033 57.3992 33.2365 56.5667 35.4015C55.2039 32.6835 53.7075 30.0381 52.0833 27.4756C54.4 27.8276 56.6333 28.2617 58.77 28.7983H58.7667ZM51.3 46.605C50.0791 48.7906 48.7679 50.9218 47.37 52.9929C42.4775 53.435 37.5568 53.4407 32.6633 53.01C29.8565 48.899 27.4018 44.5467 25.3267 40.0018C27.3986 35.4463 29.8429 31.0787 32.6333 26.9458C37.5246 26.5028 42.4442 26.4959 47.3367 26.9253C48.69 28.9145 50.0133 31.0404 51.2833 33.2824C52.5233 35.4698 53.65 37.6914 54.6767 39.9335C53.6386 42.2027 52.5121 44.4284 51.3 46.605V46.605ZM56.5667 44.4313C57.4467 46.6699 58.2 48.912 58.8167 51.0857C56.6833 51.6223 54.43 52.0735 52.1 52.4221C53.7175 49.8363 55.2082 47.1693 56.5667 44.4313V44.4313ZM40.0333 62.2722C38.5167 60.6658 37 58.8783 35.5 56.9199C36.9667 56.9883 38.4667 57.0395 39.9833 57.0395C41.5167 57.0395 43.0333 57.0054 44.5167 56.9199C43.05 58.8783 41.5333 60.6658 40.0333 62.2722ZM27.9 52.4221C25.6525 52.0882 23.4212 51.648 21.2133 51.1028C21.8167 48.9462 22.5667 46.7212 23.4133 44.4996C24.0833 45.8326 24.7867 47.1724 25.5533 48.5121C26.32 49.8485 27.1 51.1541 27.9 52.4221ZM39.95 17.6289C41.4667 19.2353 42.9833 21.0228 44.4833 22.9812C43.0167 22.9128 41.5167 22.8616 40 22.8616C38.4667 22.8616 36.95 22.8957 35.4667 22.9812C36.9333 21.0228 38.45 19.2353 39.95 17.6289ZM27.8833 27.479C26.2662 30.0592 24.7755 32.7204 23.4167 35.4527C22.5607 33.2738 21.8098 31.0529 21.1667 28.7983C23.3 28.2788 25.5533 27.8276 27.8833 27.479ZM13.1267 48.4096C7.35333 45.8873 3.62 42.5754 3.62 39.9506C3.62 37.3257 7.35333 33.9968 13.1267 31.4915C14.5267 30.8729 16.06 30.3192 17.6433 29.8031C18.5733 33.0774 19.7967 36.4883 21.31 39.9847C19.8812 43.2733 18.6729 46.6579 17.6933 50.1151C16.1448 49.6235 14.6208 49.0543 13.1267 48.4096V48.4096ZM21.9 72.3C19.6833 71.0012 18.72 66.0318 19.47 59.6473C19.65 58.0751 19.9433 56.4175 20.3033 54.7291C23.4967 55.5323 26.9867 56.1509 30.6567 56.5542C32.7339 59.4924 35.0001 62.2853 37.44 64.9141C32.1233 69.9793 27.1333 72.7546 23.74 72.7546C23.0998 72.7617 22.4678 72.6068 21.9 72.3034V72.3ZM60.58 59.5619C61.3467 65.9497 60.4 70.9158 58.1967 72.2351C57.71 72.5358 57.0733 72.6691 56.3233 72.6691C52.9467 72.6691 47.94 69.911 42.6233 64.8765C45.0531 62.2587 47.304 59.4723 49.36 56.5371C52.8539 56.1702 56.3188 55.5558 59.73 54.6983C60.1067 56.3867 60.3967 58.0068 60.58 59.5619V59.5619ZM66.8567 48.4096C65.4567 49.0282 63.9233 49.5819 62.34 50.098C61.3432 46.6232 60.1182 43.2215 58.6733 39.9164C60.1733 36.4405 61.3767 33.0466 62.29 29.786C63.8434 30.2793 65.3729 30.8484 66.8733 31.4915C72.6467 34.0138 76.38 37.3257 76.38 39.9506C76.3633 42.5754 72.63 45.9044 66.8567 48.4096V48.4096Z" fill="#1A1A1A"/>
<path d="M39.9833 47.5927C41.9601 47.5927 43.8559 46.7876 45.2536 45.3544C46.6514 43.9212 47.4367 41.9774 47.4367 39.9505C47.4367 37.9237 46.6514 35.9799 45.2536 34.5467C43.8559 33.1135 41.9601 32.3083 39.9833 32.3083C38.0066 32.3083 36.1108 33.1135 34.713 34.5467C33.3153 35.9799 32.53 37.9237 32.53 39.9505C32.53 41.9774 33.3153 43.9212 34.713 45.3544C36.1108 46.7876 38.0066 47.5927 39.9833 47.5927V47.5927Z" fill="#1A1A1A"/>
</g>
<defs>
<clipPath id="clip0_7_123">
<rect width="80" height="82.0271" fill="white"/>
</clipPath>
</defs>
</svg>
