<svg width="80" height="80" viewBox="0 0 80 80" fill="none" xmlns="http://www.w3.org/2000/svg">
<path d="M21.405 38.14C27.375 40.2384 33.6732 41.2486 40 41.1225C46.327 41.2478 52.6251 40.2368 58.595 38.1375C63.255 36.32 64.9075 34.3 64.9075 33.1375V24.25C63.2783 25.341 61.5304 26.2435 59.6975 26.94C53.3811 29.2018 46.7082 30.3044 40 30.195C33.2923 30.3024 26.6201 29.2015 20.3025 26.945C18.4687 26.2484 16.7206 25.3442 15.0925 24.25V33.125C15.0925 34.31 16.75 36.32 21.405 38.14ZM21.405 54.9025C23.514 55.7068 25.6888 56.3266 27.905 56.755C31.8901 57.5259 35.941 57.9052 40 57.8875C44.0589 57.9061 48.1098 57.5276 52.095 56.7575C54.3111 56.3291 56.486 55.7093 58.595 54.905C63.255 53.0875 64.9075 51.0675 64.9075 49.905V41.43C63.5608 42.2404 62.1453 42.9305 60.6775 43.4925C54.0419 45.8419 47.038 46.9792 40 46.85C32.9612 46.9751 25.9573 45.8337 19.3225 43.48C17.8553 42.9166 16.44 42.2265 15.0925 41.4175V49.9C15.0925 51.065 16.75 53.0775 21.405 54.9025ZM40 75C53.75 75 64.9075 70.64 64.9075 65.265V58.1725C63.6824 58.911 62.3989 59.5481 61.07 60.0775L60.6775 60.235C54.0432 62.5914 47.0392 63.7354 40 63.6125C32.9605 63.7389 25.9559 62.5948 19.3225 60.235C19.1875 60.185 19.0575 60.1275 18.93 60.0775C17.6011 59.5481 16.3176 58.911 15.0925 58.1725V65.265C15.0925 70.64 26.25 75 40 75Z" fill="#1A1A1A"/>
<path d="M40 24.47C53.756 24.47 64.9075 20.1115 64.9075 14.735C64.9075 9.35851 53.756 5 40 5C26.244 5 15.0925 9.35851 15.0925 14.735C15.0925 20.1115 26.244 24.47 40 24.47Z" fill="#1A1A1A"/>
</svg>
