<svg width="80" height="80" viewBox="0 0 80 80" fill="none" xmlns="http://www.w3.org/2000/svg">
<g clip-path="url(#clip0_7_107)">
<path d="M40.0033 16C29.3367 16 22.67 21.3333 20.0033 32C24.0033 26.6667 28.67 24.6667 34.0033 26C37.0467 26.76 39.22 28.9667 41.63 31.4133C45.5533 35.3933 50.09 40 60.0033 40C70.67 40 77.3367 34.6667 80.0033 24C76.0033 29.3333 71.3367 31.3333 66.0033 30C62.96 29.24 60.7867 27.0333 58.3767 24.5867C54.4567 20.6067 49.92 16 40.0033 16ZM20.0033 40C9.33667 40 2.67 45.3333 0.00333405 56C4.00333 50.6667 8.67 48.6667 14.0033 50C17.0467 50.76 19.22 52.9667 21.63 55.4133C25.5533 59.3933 30.09 64 40.0033 64C50.67 64 57.3367 58.6667 60.0033 48C56.0033 53.3333 51.3367 55.3333 46.0033 54C42.96 53.24 40.7867 51.0333 38.3767 48.5867C34.4567 44.6067 29.92 40 20.0033 40Z" fill="#1A1A1A"/>
</g>
<defs>
<clipPath id="clip0_7_107">
<rect width="80" height="80" fill="white"/>
</clipPath>
</defs>
</svg>
