<svg width="80" height="80" viewBox="0 0 80 80" fill="none" xmlns="http://www.w3.org/2000/svg">
<path d="M56.6667 54.9V24.6333L36.6667 39.7667M7.4 30.6333C6.91621 30.1161 6.64156 29.4377 6.62925 28.7295C6.61693 28.0213 6.86782 27.3338 7.33333 26.8L11.3333 23.1C12 22.5 13.6333 22.2333 14.8333 23.1L26.2333 31.8L52.6667 7.63334C53.7333 6.56668 55.5667 6.13335 57.6667 7.23335L71 13.6C72.2 14.3 73.3333 15.4 73.3333 17.4333V62.4333C73.3333 63.7667 72.3667 65.2 71.3333 65.7667L56.6667 72.7667C55.6 73.2 53.6 72.8 52.9 72.1L26.1667 47.7667L14.8333 56.4333C13.5667 57.3 12 57.0667 11.3333 56.4333L7.33333 52.7667C6.26667 51.6667 6.4 49.8667 7.5 48.7667L17.5 39.7667" fill="#1A1A1A"/>
</svg>
